<svg xmlns="http://www.w3.org/2000/svg" version="1.1" xmlns:xlink="http://www.w3.org/1999/xlink" xmlns:svgjs="http://svgjs.dev/svgjs" width="1000" height="1055" viewBox="0 0 1000 1055"><g transform="matrix(1,0,0,1,0.9785631761369586,0.4271255060727981)"><svg viewBox="0 0 234 247" data-background-color="#dedede" preserveAspectRatio="xMidYMid meet" height="1055" width="1000" xmlns="http://www.w3.org/2000/svg" xmlns:xlink="http://www.w3.org/1999/xlink"><g id="tight-bounds" transform="matrix(1,0,0,1,-0.2289837832160515,-0.09999999999999432)"><svg viewBox="0 0 234.45796756643213 247.2" height="247.2" width="234.45796756643213"><g><svg viewBox="0 0 395.52 417.0152331133587" height="247.2" width="234.45796756643213"><g transform="matrix(1,0,0,1,0,252.91409844287162)"><svg viewBox="0 0 395.52 164.1011346704871" height="164.1011346704871" width="395.52"><g id="textblocktransform"><svg viewBox="0 0 395.52 164.1011346704871" height="164.1011346704871" width="395.52" id="textblock"><g><svg viewBox="0 0 395.52 164.1011346704871" height="164.1011346704871" width="395.52"><g transform="matrix(1,0,0,1,0,0)"><svg width="395.52" viewBox="4.5 -35.6 87.24 36.2" height="164.1011346704871" data-palette-color="#000000"><g class="wordmark-text-0" data-fill-palette-color="primary" id="text-0"><path d="M8.45 0L4.5 0 4.5-32.8 8.8-32.8 20.65-12.2 24.2-5.4 24.4-5.4Q24.25-7.9 24.08-10.58 23.9-13.25 23.9-15.85L23.9-15.85 23.9-32.8 27.85-32.8 27.85 0 23.55 0 11.65-20.65 8.1-27.4 7.9-27.4Q8.1-24.9 8.28-22.33 8.45-19.75 8.45-17.15L8.45-17.15 8.45 0ZM40.55 0L36.45 0 36.45-24.3 40.55-24.3 40.55 0ZM38.55-29.3L38.55-29.3Q37.35-29.3 36.52-30.05 35.7-30.8 35.7-31.95L35.7-31.95Q35.7-33.15 36.52-33.88 37.35-34.6 38.55-34.6L38.55-34.6Q39.75-34.6 40.57-33.88 41.4-33.15 41.4-31.95L41.4-31.95Q41.4-30.8 40.57-30.05 39.75-29.3 38.55-29.3ZM58.35 0.6L58.35 0.6Q55.95 0.6 53.85-0.25 51.75-1.1 50.22-2.73 48.7-4.35 47.82-6.73 46.95-9.1 46.95-12.1L46.95-12.1Q46.95-15.15 47.9-17.53 48.85-19.9 50.45-21.55 52.05-23.2 54.17-24.05 56.3-24.9 58.65-24.9L58.65-24.9Q61.05-24.9 62.75-24.05 64.45-23.2 65.75-22.05L65.75-22.05 63.65-19.35Q62.6-20.3 61.42-20.9 60.25-21.5 58.8-21.5L58.8-21.5Q57.15-21.5 55.75-20.83 54.35-20.15 53.35-18.9 52.35-17.65 51.77-15.93 51.2-14.2 51.2-12.1L51.2-12.1Q51.2-10 51.75-8.3 52.3-6.6 53.27-5.38 54.25-4.15 55.65-3.48 57.05-2.8 58.7-2.8L58.7-2.8Q60.4-2.8 61.82-3.53 63.25-4.25 64.4-5.25L64.4-5.25 66.2-2.5Q64.55-1.05 62.55-0.23 60.55 0.6 58.35 0.6ZM75.59 0L71.54 0 71.54-35.6 75.59-35.6 75.59-11.5 75.74-11.5 86.09-24.3 90.64-24.3 82.49-14.55 91.74 0 87.24 0 80.14-11.7 75.59-6.4 75.59 0Z" fill="#000000" data-fill-palette-color="primary"></path></g></svg></g></svg></g></svg></g></svg></g><g transform="matrix(1,0,0,1,75.54432,0)"><svg viewBox="0 0 244.43135999999998 214.1737589744017" height="214.1737589744017" width="244.43135999999998"><g><svg xmlns="http://www.w3.org/2000/svg" xmlns:xlink="http://www.w3.org/1999/xlink" version="1.1" x="0" y="0" viewBox="2 7.8999999999999995 96.1 84.20400000000001" style="enable-background:new 0 0 100 100;" xml:space="preserve" height="214.1737589744017" width="244.43135999999998" class="icon-icon-0" data-fill-palette-color="accent" id="icon-0"><g fill="#61777f" data-fill-palette-color="accent"><path d="M13.1 16.6c0 0 1.5-1.6-1.2-3.6 0 0-5.3 2.2-6.7 3.6S2 21.2 2 21.9c0 0 5.8-3.4 8.4-4.4C13.1 16.6 13.1 16.6 13.1 16.6z" fill="#61777f" data-fill-palette-color="accent"></path><path d="M17.2 18.8l-3-1.3c-2.4 0-9.6 3.8-9.6 3.8l-1.3 0.9c3.4 0.9 8.8-1.2 8.8-1.2l4.4-0.4L17.2 18.8z" fill="#61777f" data-fill-palette-color="accent"></path><path d="M49.8 62.7c-5.3-1.9-15.1-10.2-15.1-10.2l-3.9-0.5c-8.1-3.9-8.8-10.4-9.3-11.4-0.5-1.1-1.1-4.9 1.4-7.2 2.5-2.3 7.7-0.4 7.7-0.4s-3.3-0.5-6.7 1.8c-3.3 2.3 1.6 14.1 6.7 15.5 5.1 1.4 3-0.7 3.9-4.4 0.9-3.7 4.6-1.6 11.1-2.6 6.5-1.1 4.6-7.7 4.6-7.7 2.8 3.9-0.4 8.8-3.3 9.2-3 0.4-10.6 0.7-10.9 1.4-0.4 0.7-0.2 4.6-0.2 4.6l3.5 3.3c2.1 2.3 12.5 8.6 16.7 9s2.5-2.5 2.5-2.5c-4-2.8-9.9-10.2-9.9-10.2 14.8 14.6 20.2 13 19 8.4-0.7-2.5-12.7-16.7-12.7-16.7 4 2.8 13.4 13.9 13.4 13.9 1.9-0.7-3-7.7-3-7.7S46.1 24.5 44.7 23.8c-1.4-0.7-4.4-1.1-4.4-1.1l-5.1-5.3c0 0 0 0-1.9-1.9-1.9-1.9-3.2-2.1-3.2-2.1l2.8-0.2c-4.4-2.8-8.6-5.3-12.5-5.3S13 12.5 13 12.5c1.6 0.2 1.9 3.9 1.9 3.9l3.1 1.7c0.3 0.2 0.5 0.6 0.4 1l-0.7 2.1c-0.1 0.3-0.4 0.5-0.7 0.6l-3.5 0.2c0 0 2.6 3.2 1.2 7.6-1.4 4.4 6 15.5 6 15.5l15.3 24.3-0.4-2.5 4.8 3.2v-3.2l2.3 2c0.5 0.8 0.8 1.5 0.8 1.9-0.1 0.8-4.5 9.5-4.5 9.5s-5 2.1-6.3 1.8-3.3 0.3-3.4 1.5c-0.1 1.2-0.1 1.2-0.1 1.2s1.7-1.3 2.6-1.3c0.9 0-0.5 1.2 2.9 0.5 3.4-0.7 7.4-1.7 7.4-1.7s3.6 0.9 5.4 1.2c1.8 0.3 2.2 1.8 2.2 1.8s0.7-2.8-1.6-3.4c-2.2-0.7-4.6-1.8-4.6-1.8s-0.9-0.3-0.5-2.1c0.4-1.8 4.5-6.9 3.8-7.8-0.3-0.4-0.7-1.2-1.1-1.9 1 0.7 1.9 1.2 1.9 1.2l-1.9-3.7c0 0 2.1 0.7 5.5 2.1 3.3 1.4 12.3 0.7 12.3 0.7l-4.8-3.5C58.8 64.8 55.1 64.6 49.8 62.7zM19.6 15.8c-0.8 0-1.5-0.7-1.5-1.5 0-0.8 0.7-1.5 1.5-1.5s1.5 0.7 1.5 1.5C21 15.2 20.4 15.8 19.6 15.8z" fill="#61777f" data-fill-palette-color="accent"></path><path d="M68.4 62.5c-2.4 2.6-7.1 0.1-7.1 0.1L60.9 64c2.9 2.9 34.9 25 35.5 24.1 0.7-0.9-2-4-2-4-3.6-3.4-17.9-15.5-19.1-17.4-1.2-1.8-5.9-7.4-5.9-7.4C69.6 61.2 68.4 62.5 68.4 62.5z" fill="#61777f" data-fill-palette-color="accent"></path><path d="M93.2 88.1C91.9 87.3 64.4 69 64.4 69s18.7 17.1 21.2 19.2c2.5 2.1 4.6 2.4 4.6 2.4l-3.4-5.3c0 0 4.6 5.3 6.5 6.1 1.8 0.8 4.8 0.7 4.8 0.7S94.6 88.9 93.2 88.1z" fill="#61777f" data-fill-palette-color="accent"></path><path d="M48.1 67.6l0.7 2.8-3.8 6.5-0.5 1.1c0 0 6.2-6.1 6.9-7 0.7-0.9-0.4-2-0.4-2L48.1 67.6z" fill="#61777f" data-fill-palette-color="accent"></path><path d="M33.4 80.7l4.4-1.3 1.1-2c-1.5 1.6-6.5 1.2-7.7 1.2s-3.6 0.8-3.6 0.8c-3 0.1-2.5 2.4-2.5 2.4 0-0.9 2-1.1 2-1.1l0.4 1.1c0 0 1.2 0.4 2.1-0.4C30.5 80.6 33.4 80.7 33.4 80.7z" fill="#61777f" data-fill-palette-color="accent"></path></g></svg></g></svg></g><g></g></svg></g><defs></defs></svg><rect width="234.45796756643213" height="247.2" fill="none" stroke="none" visibility="hidden"></rect></g></svg></g></svg>